# xmcd
#
# Track frame offsets: 
#        150
#        2840
#        45975
#        67767
#        95688
#        129710
#        157992
#        184198
#
# Disc length: 3015 seconds
#
# Revision: 3
# Processed by: cddbd v1.5.2PL0 Copyright (c) Steve Scherf et al.
# Submitted via: ExactAudioCopyFreeDBPlugin 1.0
#
DISCID=5d0bc508
DTITLE=Art Blakey and the Jazz Messengers - Moanin'
DYEAR=1958
DGENRE=Jazz
TTITLE0=Warm Up And Dialog Between Lee And Rudy
TTITLE1=Moanin'
TTITLE2=Are You Real
TTITLE3=Along Came Betty
TTITLE4=The Drum Thunder Suite: 1. Drum Thunder 2. Cry A Blue Tear 3. 
TTITLE4=Harlem's Disciples
TTITLE5=Blues March
TTITLE6=Come Rain Or Come Shine
TTITLE7=Moanin' (Alternate Take)
EXTD=YEAR: 1958
EXTT0=
EXTT1=
EXTT2=
EXTT3=
EXTT4=
EXTT5=
EXTT6=
EXTT7=
PLAYORDER=
